<svg width="1778" height="291" viewBox="0 0 1778 291" fill="none" xmlns="http://www.w3.org/2000/svg">
<g clip-path="url(#clip0_9_280)">
<circle cx="145.5" cy="145.5" r="145.5" fill="#90FF99"/>
<path fill-rule="evenodd" clip-rule="evenodd" d="M291.358 145.5C291.358 225.865 226.137 291 145.679 291C65.2215 291 0 225.859 0 145.5C0 65.1412 65.2215 -5.49513e-05 145.679 -5.49513e-05C172.685 -0.0436472 199.167 7.44683 222.14 21.6273C219.163 24.6007 216.808 28.1349 215.209 32.0248C213.611 35.9147 212.802 40.0829 212.83 44.2874C212.857 48.492 213.72 52.6492 215.369 56.518C217.018 60.3868 219.419 63.89 222.434 66.8245C225.449 69.759 229.018 72.0663 232.933 73.6125C236.848 75.1588 241.031 75.9131 245.24 75.8319C249.449 75.7507 253.6 74.8354 257.452 73.1393C261.304 71.4432 264.781 68.9999 267.68 65.9513C283.172 89.5936 291.402 117.245 291.358 145.5ZM267.68 65.9513C255.934 48.0235 240.387 32.8921 222.14 21.6273C228.052 15.7208 236.056 12.3784 244.418 12.324C252.781 12.2696 260.828 15.5076 266.817 21.3367C272.806 27.1657 276.254 35.1165 276.416 43.467C276.578 51.8176 273.439 59.8955 267.68 65.9513ZM167.418 206.746C179.031 202.639 189.173 195.204 196.578 185.37C203.982 175.535 208.318 163.739 209.045 151.456L247.603 137.846C250.043 162.535 243.338 187.262 228.757 207.348C214.176 227.433 192.73 241.485 168.476 246.844C144.223 252.203 118.844 248.497 97.1404 236.429C75.4372 224.361 58.9154 204.766 50.7006 181.352C42.4859 157.939 43.1479 132.33 52.5616 109.371C61.9752 86.4121 79.4875 67.6952 101.785 56.7616C124.083 45.828 149.62 43.4359 173.564 50.0379C197.509 56.6399 218.2 71.7781 231.724 92.5885L193.27 106.199C185.718 97.7272 176.003 91.466 165.162 88.0852C154.322 84.7044 142.765 84.3313 131.729 87.0058C120.693 89.6802 110.592 95.3016 102.509 103.268C94.4253 111.235 88.6627 121.247 85.8381 132.233C83.0134 143.219 83.2328 154.766 86.4729 165.637C89.713 176.508 95.8518 186.294 104.232 193.949C112.613 201.603 122.92 206.838 134.049 209.092C145.179 211.346 156.714 210.535 167.418 206.746Z" fill="black"/>
<path d="M464.266 177.912H499.54C498.831 189.47 495.645 199.725 489.982 208.678C484.393 217.643 476.567 224.638 466.504 229.663C456.52 234.693 444.485 237.207 430.399 237.207C419.385 237.207 409.515 235.321 400.79 231.549C392.178 227.787 384.518 222.149 378.37 215.048C372.236 207.893 367.555 199.252 364.328 189.124C361.101 178.996 359.489 167.637 359.493 155.047V143.141C359.493 130.568 361.146 119.213 364.451 109.076C367.834 98.8623 372.632 90.1777 378.844 83.0226C385.05 75.9369 392.742 70.3032 401.374 66.5218C410.108 62.672 419.863 60.7472 430.639 60.7472C444.954 60.7472 457.026 63.3396 466.855 68.5244C476.77 73.7093 484.44 80.8622 489.865 89.9833C495.368 99.0956 498.671 109.465 499.774 121.092H464.382C463.984 114.179 462.607 108.325 460.249 103.529C458.004 98.7759 454.224 94.9156 449.516 92.5692C444.792 90.0502 438.5 88.7907 430.639 88.7907C424.734 88.7907 419.582 89.8904 415.182 92.0896C410.663 94.3895 406.835 97.8474 404.093 102.109C401.103 106.59 398.86 112.248 397.364 119.083C395.949 125.837 395.242 133.774 395.242 142.895V155.034C395.152 162.898 395.823 170.753 397.247 178.489C398.583 185.169 400.63 190.827 403.385 195.463C406.011 199.824 409.757 203.405 414.235 205.832C418.717 208.114 424.105 209.252 430.399 209.248C437.797 209.248 443.892 208.071 448.685 205.716C453.366 203.47 457.209 199.795 459.658 195.223C462.254 190.604 463.79 184.834 464.266 177.912ZM515.231 172.397V169.921C515.138 161.154 516.493 152.433 519.241 144.107C521.714 136.519 525.686 129.505 530.921 123.477C536.117 117.603 542.568 112.969 549.798 109.919C557.273 106.622 565.847 104.972 575.52 104.967C585.193 104.963 593.804 106.614 601.353 109.919C608.63 112.94 615.126 117.569 620.353 123.458C625.652 129.459 629.667 136.48 632.15 144.087C634.898 152.413 636.253 161.135 636.161 169.901V172.397C636.24 181.162 634.885 189.881 632.15 198.211C629.626 205.794 625.616 212.8 620.353 218.82C615.157 224.693 608.706 229.324 601.477 232.372C594.01 235.596 585.436 237.207 575.754 237.207C566.072 237.207 557.459 235.596 549.915 232.372C542.662 229.307 536.176 224.679 530.921 218.82C525.72 212.769 521.753 205.761 519.241 198.191C516.508 189.868 515.154 181.155 515.231 172.397ZM549.207 169.921V172.397C549.178 177.419 549.652 182.433 550.622 187.361C551.445 191.661 552.959 195.8 555.106 199.617C557.134 202.976 559.975 205.773 563.366 207.751C566.749 209.717 570.879 210.7 575.754 210.7C580.478 210.7 584.529 209.717 587.908 207.751C591.283 205.794 594.088 202.99 596.045 199.617C598.198 195.801 599.713 191.659 600.529 187.355C601.584 182.439 602.099 177.424 602.067 172.397V169.921C602.096 165.005 601.58 160.102 600.529 155.299C599.709 150.982 598.152 146.836 595.928 143.044C594.004 139.554 591.198 136.627 587.791 134.554C584.404 132.514 580.314 131.495 575.52 131.495C570.727 131.495 566.637 132.508 563.25 134.534C559.878 136.653 557.08 139.569 555.106 143.024C552.96 146.841 551.445 150.98 550.622 155.28C549.655 160.093 549.181 164.992 549.207 169.901V169.921ZM690.318 134.554V234.848H656.335V107.307H688.19L690.318 134.554ZM685.361 166.615H676.159C676.159 157.183 677.377 148.697 679.812 141.158C682.252 133.536 685.674 127.055 690.078 121.715C694.294 116.444 699.664 112.209 705.775 109.336C712.204 106.366 719.218 104.876 726.3 104.974C731.875 104.912 737.421 105.788 742.704 107.566C747.563 109.236 751.937 112.072 755.442 115.823C759.063 119.595 761.817 124.584 763.703 130.788C765.667 136.997 766.649 144.582 766.649 153.543V234.848H732.439V153.394C732.439 147.734 731.651 143.333 730.077 140.192C728.665 137.202 726.183 134.848 723.12 133.594C720.131 132.259 716.432 131.592 712.024 131.592C707.889 131.492 703.794 132.423 700.11 134.301C696.794 136.122 693.962 138.709 691.85 141.845C689.616 145.236 687.981 148.985 687.015 152.927C685.884 157.395 685.328 161.988 685.361 166.596V166.615ZM861.512 199.617C861.534 197.244 860.787 194.928 859.384 193.013C857.969 191.047 855.335 189.241 851.48 187.595C847.708 185.866 842.242 184.294 835.082 182.876C828.943 181.554 822.909 179.782 817.03 177.575C811.905 175.587 807.065 172.93 802.637 169.674C798.76 166.765 795.542 163.07 793.196 158.832C790.862 154.36 789.686 149.376 789.776 144.334C789.75 139.11 790.92 133.949 793.196 129.246C795.635 124.43 799.052 120.175 803.228 116.75C807.971 112.875 813.421 109.952 819.275 108.143C826.215 105.936 833.465 104.862 840.747 104.961C851.835 104.961 861.352 106.73 869.299 110.269C877.32 113.799 883.454 118.671 887.702 124.884C892.022 131.006 894.293 138.335 894.191 145.824H860.215C860.269 142.745 859.537 139.702 858.086 136.984C856.7 134.264 854.462 132.07 851.714 130.736C848.885 129.168 845.188 128.384 840.624 128.384C837.25 128.3 833.902 128.985 830.832 130.386C828.268 131.492 826.062 133.287 824.46 135.571C823.055 137.66 822.315 140.125 822.338 142.642C822.31 144.479 822.715 146.297 823.519 147.95C824.563 149.622 825.977 151.032 827.652 152.072C829.945 153.53 832.399 154.717 834.966 155.611C838.676 156.795 842.458 157.741 846.289 158.443C854.735 160.094 862.995 162.58 870.947 165.864C878.181 168.849 883.923 172.937 888.176 178.126C892.42 183.233 894.544 189.952 894.548 198.282C894.605 203.7 893.307 209.046 890.772 213.837C888.116 218.722 884.408 222.959 879.915 226.241C874.764 229.91 869.017 232.662 862.927 234.375C855.742 236.348 848.315 237.302 840.864 237.207C828.985 237.207 818.916 235.086 810.658 230.843C802.482 226.6 796.267 221.216 792.015 214.692C787.849 208.09 785.766 201.332 785.766 194.419H817.977C818.133 199.051 819.312 202.784 821.514 205.618C823.76 208.418 826.741 210.538 830.125 211.743C833.804 213.023 837.676 213.661 841.572 213.629C845.975 213.629 849.633 213.039 852.544 211.86C855.151 210.834 857.433 209.125 859.15 206.915C860.716 204.806 861.546 202.242 861.512 199.617ZM979.139 107.32V131.371H904.807V107.307L979.139 107.32ZM923.217 75.8286H957.193V196.422C957.193 200.116 957.665 202.946 958.608 204.912C959.541 206.792 961.139 208.261 963.092 209.034C965.49 209.807 968.003 210.166 970.522 210.097C972.65 210.097 974.539 210.017 976.187 209.857C977.917 209.624 979.373 209.388 980.554 209.151L980.671 234.142C977.588 235.129 974.434 235.877 971.236 236.378C967.526 236.955 963.777 237.232 960.023 237.207C952.552 237.207 946.024 235.989 940.439 233.552C934.97 231.073 930.487 226.842 927.701 221.53C924.707 216.025 923.212 208.794 923.217 199.837V75.8286ZM1057.24 237.207C1047.33 237.207 1038.45 235.634 1030.58 232.489C1023.04 229.485 1016.21 224.95 1010.52 219.17C1005.09 213.503 1000.84 206.812 998.016 199.487C995.08 191.812 993.599 183.659 993.649 175.443V170.724C993.545 161.717 994.94 152.755 997.776 144.204C1000.32 136.554 1004.33 129.469 1009.58 123.341C1014.76 117.45 1021.22 112.814 1028.46 109.783C1035.85 106.564 1044.18 104.952 1053.47 104.948C1062.51 104.948 1070.53 106.443 1077.54 109.433C1084.31 112.251 1090.33 116.61 1095.11 122.162C1100.06 127.93 1103.76 134.664 1105.97 141.936C1108.5 150.183 1109.73 158.774 1109.63 167.4V181.541H1008.16V158.935H1076.24V156.343C1076.31 151.999 1075.43 147.692 1073.64 143.731C1072.07 140.071 1069.44 136.964 1066.09 134.806C1062.71 132.603 1058.38 131.503 1053.11 131.507C1048.63 131.507 1044.77 132.488 1041.55 134.45C1038.26 136.486 1035.54 139.325 1033.65 142.7C1031.54 146.622 1030.03 150.832 1029.16 155.196C1028.18 160.321 1027.71 165.532 1027.75 170.75V175.469C1027.7 180.265 1028.42 185.038 1029.87 189.61C1031.23 193.702 1033.36 197.502 1036.13 200.81C1038.86 203.928 1042.24 206.412 1046.04 208.088C1050.25 209.873 1054.79 210.756 1059.36 210.68C1065.25 210.732 1071.09 209.525 1076.48 207.142C1081.89 204.649 1086.63 200.887 1090.28 196.176L1106.8 214.096C1103.74 218.336 1100.04 222.074 1095.83 225.178C1090.82 228.948 1085.24 231.893 1079.3 233.902C1072.85 236.105 1065.5 237.207 1057.24 237.207ZM1164.84 53.793V234.848H1130.75V53.793H1164.84ZM1228.79 53.793V234.848H1194.69V53.793H1228.79ZM1325.77 206.098V149.272C1325.87 145.671 1325.18 142.092 1323.77 138.779C1322.48 135.851 1320.29 133.413 1317.51 131.825C1314.76 130.17 1311.18 129.345 1306.78 129.349C1303.4 129.264 1300.05 129.951 1296.99 131.358C1294.35 132.513 1292.12 134.444 1290.61 136.893C1289.08 139.408 1288.3 142.314 1288.38 145.26H1254.39C1254.38 139.885 1255.68 134.587 1258.17 129.822C1260.83 124.78 1264.57 120.392 1269.14 116.977C1274.27 113.03 1280.06 110.034 1286.25 108.13C1293.51 105.925 1301.07 104.852 1308.67 104.948C1318.57 104.948 1327.38 106.599 1335.09 109.9C1342.49 112.942 1348.81 118.112 1353.26 124.754C1357.75 131.356 1359.99 139.607 1359.99 149.505V204.082C1359.99 211.078 1360.42 216.813 1361.29 221.29C1362.02 225.293 1363.29 229.18 1365.06 232.845V234.848H1330.73C1328.88 230.723 1327.6 226.361 1326.95 221.886C1326.17 216.66 1325.77 211.383 1325.77 206.098ZM1330.26 157.166L1330.49 176.382H1311.5C1307.55 176.311 1303.61 176.826 1299.82 177.912C1296.82 178.769 1294.04 180.256 1291.67 182.274C1289.62 183.994 1288 186.178 1286.95 188.645C1285.99 191.204 1285.51 193.921 1285.54 196.655C1285.5 199.419 1286.19 202.143 1287.54 204.556C1288.92 206.871 1290.93 208.749 1293.33 209.974C1296.09 211.285 1299.12 211.931 1302.18 211.86C1307.28 211.86 1311.72 210.84 1315.51 208.801C1318.98 207.017 1321.97 204.43 1324.24 201.257C1326.36 198.271 1327.46 195.441 1327.54 192.767L1336.51 207.148C1335.11 210.647 1333.37 214.002 1331.32 217.168C1329.06 220.783 1326.32 224.074 1323.18 226.948C1319.65 230.075 1315.62 232.586 1311.26 234.375C1306.62 236.263 1301.11 237.207 1294.74 237.207C1287.11 237.311 1279.56 235.656 1272.68 232.372C1266.39 229.286 1261.03 224.614 1257.1 218.82C1253.31 212.918 1251.34 206.029 1251.45 199.014C1251.45 192.339 1252.7 186.406 1255.22 181.217C1257.76 175.999 1261.57 171.5 1266.31 168.132C1271.26 164.516 1277.44 161.804 1284.83 159.998C1292.23 158.11 1300.8 157.166 1310.55 157.166H1330.26ZM1448.71 107.307V131.358H1374.38V107.307H1448.71ZM1392.78 75.8286H1426.77V196.422C1426.77 200.116 1427.24 202.946 1428.18 204.912C1429.11 206.792 1430.71 208.261 1432.67 209.034C1435.06 209.807 1437.58 210.167 1440.1 210.097C1442.22 210.097 1444.11 210.017 1445.76 209.857C1447.49 209.624 1448.95 209.39 1450.13 209.151L1450.24 234.142C1447.16 235.129 1444 235.877 1440.8 236.378C1437.1 236.954 1433.35 237.232 1429.6 237.207C1422.12 237.207 1415.59 235.989 1410.01 233.552C1404.54 231.073 1400.06 226.842 1397.27 221.53C1394.28 216.025 1392.79 208.794 1392.78 199.837V75.8286ZM1503.93 107.301V234.848H1469.83V107.307L1503.93 107.301ZM1467.71 74.0593C1467.64 71.7641 1468.07 69.4818 1468.97 67.3671C1469.86 65.2525 1471.2 63.3551 1472.9 61.8036C1476.36 58.5846 1481 56.973 1486.82 56.9687C1492.56 56.9687 1497.16 58.5803 1500.63 61.8036C1502.35 63.3383 1503.72 65.2299 1504.63 67.3465C1505.55 69.4631 1505.99 71.7539 1505.93 74.0593C1505.99 76.3656 1505.55 78.6574 1504.63 80.775C1503.72 82.8927 1502.35 84.7854 1500.63 86.3215C1497.16 89.5404 1492.56 91.1499 1486.82 91.1499C1481 91.1499 1476.36 89.5404 1472.9 86.3215C1471.2 84.7694 1469.86 82.8719 1468.97 80.7574C1468.07 78.6429 1467.64 76.3608 1467.71 74.0658V74.0593ZM1526.58 172.397V169.921C1526.48 161.154 1527.84 152.432 1530.59 144.107C1533.07 136.519 1537.04 129.505 1542.27 123.477C1547.47 117.601 1553.92 112.968 1561.15 109.919C1568.62 106.622 1577.19 104.972 1586.86 104.967C1596.54 104.963 1605.16 106.614 1612.7 109.919C1619.98 112.945 1626.48 117.581 1631.7 123.477C1637 129.48 1641.02 136.5 1643.5 144.107C1646.25 152.433 1647.6 161.154 1647.51 169.921V172.397C1647.59 181.162 1646.24 189.881 1643.5 198.211C1640.98 205.8 1636.97 212.812 1631.7 218.84C1626.51 224.714 1620.05 229.346 1612.82 232.392C1605.35 235.611 1596.78 237.222 1587.11 237.227C1577.43 237.231 1568.81 235.613 1561.27 232.372C1554.01 229.307 1547.53 224.679 1542.27 218.82C1537.07 212.769 1533.1 205.761 1530.59 198.191C1527.86 189.868 1526.5 181.156 1526.58 172.397ZM1560.56 169.921V172.397C1560.53 177.419 1561 182.433 1561.97 187.361C1562.8 191.661 1564.31 195.8 1566.46 199.617C1568.48 202.978 1571.32 205.775 1574.72 207.751C1578.1 209.717 1582.23 210.7 1587.11 210.7C1591.82 210.7 1595.87 209.717 1599.25 207.751C1602.63 205.794 1605.44 202.99 1607.4 199.617C1609.55 195.799 1611.06 191.658 1611.88 187.355C1612.93 182.436 1613.44 177.419 1613.41 172.39V169.914C1613.44 164.999 1612.93 160.096 1611.88 155.293C1611.06 150.976 1609.5 146.831 1607.28 143.037C1605.35 139.547 1602.54 136.62 1599.14 134.547C1595.75 132.508 1591.66 131.488 1586.86 131.488C1582.07 131.488 1577.98 132.508 1574.59 134.547C1571.22 136.664 1568.43 139.581 1566.46 143.037C1564.31 146.854 1562.8 150.993 1561.97 155.293C1561.01 160.102 1560.53 164.997 1560.56 169.901V169.921ZM1701.66 134.554V234.848H1667.69V107.307H1699.54L1701.66 134.554ZM1696.71 166.615H1687.51C1687.51 157.183 1688.73 148.697 1691.16 141.158C1693.6 133.536 1697.03 127.055 1701.43 121.715C1705.64 116.446 1711.01 112.211 1717.12 109.336C1723.55 106.367 1730.57 104.876 1737.65 104.974C1743.22 104.912 1748.77 105.788 1754.05 107.566C1758.91 109.236 1763.29 112.071 1766.79 115.823C1770.41 119.595 1773.16 124.584 1775.05 130.788C1777.02 136.997 1778 144.582 1778 153.543V234.848H1743.78V153.394C1743.78 147.734 1743 143.333 1741.43 140.192C1740.01 137.201 1737.53 134.848 1734.46 133.594C1731.48 132.242 1727.78 131.566 1723.38 131.566C1719.24 131.466 1715.14 132.397 1711.45 134.275C1708.14 136.094 1705.31 138.681 1703.2 141.819C1700.97 145.21 1699.33 148.958 1698.36 152.901C1697.23 157.378 1696.68 161.98 1696.71 166.596V166.615Z" fill="black"/>
</g>
<defs>
<clipPath id="clip0_9_280">
<rect width="1778" height="291" fill="white"/>
</clipPath>
</defs>
</svg>
